# Blender 5.1.0
# www.blender.org
mtllib post.mtl
o Plane
v 0.075000 0.935000 -0.030000
v -0.075000 0.935000 -0.030000
v 0.075000 0.785000 -0.030000
v -0.075000 0.785000 -0.030000
v 0.075000 0.810000 -0.030000
v 0.075000 0.835000 -0.030000
v 0.075000 0.860000 -0.030000
v 0.075000 0.885000 -0.030000
v 0.075000 0.910000 -0.030000
v 0.050000 0.935000 -0.030000
v 0.025000 0.935000 -0.030000
v 0.000000 0.935000 -0.030000
v -0.025000 0.935000 -0.030000
v -0.050000 0.935000 -0.030000
v -0.075000 0.910000 -0.030000
v -0.075000 0.885000 -0.030000
v -0.075000 0.860000 -0.030000
v -0.075000 0.835000 -0.030000
v -0.075000 0.810000 -0.030000
v -0.050000 0.785000 -0.030000
v -0.025000 0.785000 -0.030000
v -0.000000 0.785000 -0.030000
v 0.025000 0.785000 -0.030000
v 0.050000 0.785000 -0.030000
v 0.050000 0.910000 -0.030000
v 0.050000 0.885000 -0.030000
v 0.050000 0.860000 -0.030000
v 0.050000 0.835000 -0.030000
v 0.050000 0.810000 -0.030000
v 0.025000 0.910000 -0.030000
v 0.025000 0.885000 -0.030000
v 0.025000 0.860000 -0.030000
v 0.025000 0.835000 -0.030000
v 0.025000 0.810000 -0.030000
v 0.000000 0.910000 -0.030000
v 0.000000 0.885000 -0.030000
v 0.000000 0.860000 -0.030000
v -0.000000 0.835000 -0.030000
v -0.000000 0.810000 -0.030000
v -0.025000 0.910000 -0.030000
v -0.025000 0.885000 -0.030000
v -0.025000 0.860000 -0.030000
v -0.025000 0.835000 -0.030000
v -0.025000 0.810000 -0.030000
v -0.050000 0.910000 -0.030000
v -0.050000 0.885000 -0.030000
v -0.050000 0.860000 -0.030000
v -0.050000 0.835000 -0.030000
v -0.050000 0.810000 -0.030000
v -0.050000 0.810000 -0.020000
v -0.075000 0.810000 -0.020000
v -0.075000 0.785000 -0.020000
v -0.050000 0.785000 -0.020000
v 0.075000 0.810000 -0.020000
v 0.050000 0.810000 -0.020000
v 0.050000 0.785000 -0.020000
v 0.075000 0.785000 -0.020000
v 0.025000 0.810000 -0.020000
v 0.025000 0.785000 -0.020000
v -0.000000 0.810000 -0.020000
v -0.000000 0.785000 -0.020000
v -0.025000 0.810000 -0.020000
v -0.025000 0.785000 -0.020000
v 0.075000 0.935000 -0.020000
v 0.050000 0.935000 -0.020000
v 0.050000 0.910000 -0.020000
v 0.075000 0.910000 -0.020000
v 0.050000 0.885000 -0.020000
v 0.075000 0.885000 -0.020000
v 0.050000 0.860000 -0.020000
v 0.075000 0.860000 -0.020000
v 0.050000 0.835000 -0.020000
v 0.075000 0.835000 -0.020000
v 0.025000 0.935000 -0.020000
v 0.025000 0.910000 -0.020000
v 0.025000 0.885000 -0.020000
v 0.025000 0.860000 -0.020000
v 0.025000 0.835000 -0.020000
v 0.000000 0.935000 -0.020000
v 0.000000 0.910000 -0.020000
v 0.000000 0.885000 -0.020000
v 0.000000 0.860000 -0.020000
v -0.000000 0.835000 -0.020000
v -0.025000 0.935000 -0.020000
v -0.025000 0.910000 -0.020000
v -0.025000 0.885000 -0.020000
v -0.025000 0.860000 -0.020000
v -0.025000 0.835000 -0.020000
v -0.050000 0.935000 -0.020000
v -0.050000 0.910000 -0.020000
v -0.050000 0.885000 -0.020000
v -0.050000 0.860000 -0.020000
v -0.050000 0.835000 -0.020000
v -0.075000 0.935000 -0.020000
v -0.075000 0.910000 -0.020000
v -0.075000 0.885000 -0.020000
v -0.075000 0.860000 -0.020000
v -0.075000 0.835000 -0.020000
v -0.000000 0.010000 -0.025000
v -0.000000 1.010000 -0.025000
v 0.004877 0.010000 -0.024520
v 0.004877 1.010000 -0.024520
v 0.009567 0.010000 -0.023097
v 0.009567 1.010000 -0.023097
v 0.013889 0.010000 -0.020787
v 0.013889 1.010000 -0.020787
v 0.017678 0.010000 -0.017678
v 0.017678 1.010000 -0.017678
v 0.020787 0.010000 -0.013889
v 0.020787 1.010000 -0.013889
v 0.023097 0.010000 -0.009567
v 0.023097 1.010000 -0.009567
v 0.024520 0.010000 -0.004877
v 0.024520 1.010000 -0.004877
v 0.025000 0.010000 0.000000
v 0.025000 1.010000 0.000000
v 0.024520 0.010000 0.004877
v 0.024520 1.010000 0.004877
v 0.023097 0.010000 0.009567
v 0.023097 1.010000 0.009567
v 0.020787 0.010000 0.013889
v 0.020787 1.010000 0.013889
v 0.017678 0.010000 0.017678
v 0.017678 1.010000 0.017678
v 0.013889 0.010000 0.020787
v 0.013889 1.010000 0.020787
v 0.009567 0.010000 0.023097
v 0.009567 1.010000 0.023097
v 0.004877 0.010000 0.024520
v 0.004877 1.010000 0.024520
v -0.000000 0.010000 0.025000
v -0.000000 1.010000 0.025000
v -0.004877 0.010000 0.024520
v -0.004877 1.010000 0.024520
v -0.009567 0.010000 0.023097
v -0.009567 1.010000 0.023097
v -0.013889 0.010000 0.020787
v -0.013889 1.010000 0.020787
v -0.017678 0.010000 0.017678
v -0.017678 1.010000 0.017678
v -0.020787 0.010000 0.013889
v -0.020787 1.010000 0.013889
v -0.023097 0.010000 0.009567
v -0.023097 1.010000 0.009567
v -0.024520 0.010000 0.004877
v -0.024520 1.010000 0.004877
v -0.025000 0.010000 0.000000
v -0.025000 1.010000 0.000000
v -0.024520 0.010000 -0.004877
v -0.024520 1.010000 -0.004877
v -0.023097 0.010000 -0.009567
v -0.023097 1.010000 -0.009567
v -0.020787 0.010000 -0.013889
v -0.020787 1.010000 -0.013889
v -0.017678 0.010000 -0.017678
v -0.017678 1.010000 -0.017678
v -0.013889 0.010000 -0.020787
v -0.013889 1.010000 -0.020787
v -0.009567 0.010000 -0.023097
v -0.009567 1.010000 -0.023097
v -0.004877 0.010000 -0.024520
v -0.004877 1.010000 -0.024520
v -0.000000 0.000000 -0.120000
v -0.000000 0.010000 -0.120000
v 0.023411 0.000000 -0.117694
v 0.023411 0.010000 -0.117694
v 0.045922 0.000000 -0.110866
v 0.045922 0.010000 -0.110866
v 0.066668 0.000000 -0.099776
v 0.066668 0.010000 -0.099776
v 0.084853 0.000000 -0.084853
v 0.084853 0.010000 -0.084853
v 0.099776 0.000000 -0.066668
v 0.099776 0.010000 -0.066668
v 0.110866 0.000000 -0.045922
v 0.110866 0.010000 -0.045922
v 0.117694 0.000000 -0.023411
v 0.117694 0.010000 -0.023411
v 0.120000 0.000000 0.000000
v 0.120000 0.010000 0.000000
v 0.117694 0.000000 0.023411
v 0.117694 0.010000 0.023411
v 0.110866 0.000000 0.045922
v 0.110866 0.010000 0.045922
v 0.099776 0.000000 0.066668
v 0.099776 0.010000 0.066668
v 0.084853 0.000000 0.084853
v 0.084853 0.010000 0.084853
v 0.066668 0.000000 0.099776
v 0.066668 0.010000 0.099776
v 0.045922 0.000000 0.110866
v 0.045922 0.010000 0.110866
v 0.023411 0.000000 0.117694
v 0.023411 0.010000 0.117694
v 0.000000 0.000000 0.120000
v 0.000000 0.010000 0.120000
v -0.023411 0.000000 0.117694
v -0.023411 0.010000 0.117694
v -0.045922 0.000000 0.110866
v -0.045922 0.010000 0.110866
v -0.066668 0.000000 0.099776
v -0.066668 0.010000 0.099776
v -0.084853 0.000000 0.084853
v -0.084853 0.010000 0.084853
v -0.099776 0.000000 0.066668
v -0.099776 0.010000 0.066668
v -0.110866 0.000000 0.045922
v -0.110866 0.010000 0.045922
v -0.117694 0.000000 0.023411
v -0.117694 0.010000 0.023411
v -0.120000 0.000000 0.000000
v -0.120000 0.010000 0.000000
v -0.117694 0.000000 -0.023411
v -0.117694 0.010000 -0.023411
v -0.110866 0.000000 -0.045922
v -0.110866 0.010000 -0.045922
v -0.099776 0.000000 -0.066668
v -0.099776 0.010000 -0.066668
v -0.084853 0.000000 -0.084853
v -0.084853 0.010000 -0.084853
v -0.066668 0.000000 -0.099776
v -0.066668 0.010000 -0.099776
v -0.045922 0.000000 -0.110866
v -0.045922 0.010000 -0.110866
v -0.023411 0.000000 -0.117694
v -0.023411 0.010000 -0.117694
v 0.100000 0.960000 -0.025000
v 0.100000 0.960000 -0.015000
v 0.100000 0.760000 -0.025000
v 0.100000 0.760000 -0.015000
v -0.100000 0.960000 -0.025000
v -0.100000 0.960000 -0.015000
v -0.100000 0.760000 -0.025000
v -0.100000 0.760000 -0.015000
vn -0.0000 -0.0000 -1.0000
vn -0.0000 -0.0000 1.0000
vn -0.0000 1.0000 -0.0000
vn -1.0000 -0.0000 -0.0000
vn -0.0000 -1.0000 -0.0000
vn 1.0000 -0.0000 -0.0000
vn 0.0980 -0.0000 -0.9952
vn 0.2903 -0.0000 -0.9569
vn 0.4714 -0.0000 -0.8819
vn 0.6344 -0.0000 -0.7730
vn 0.7730 -0.0000 -0.6344
vn 0.8819 -0.0000 -0.4714
vn 0.9569 -0.0000 -0.2903
vn 0.9952 -0.0000 -0.0980
vn 0.9952 -0.0000 0.0980
vn 0.9569 -0.0000 0.2903
vn 0.8819 -0.0000 0.4714
vn 0.7730 -0.0000 0.6344
vn 0.6344 -0.0000 0.7730
vn 0.4714 -0.0000 0.8819
vn 0.2903 -0.0000 0.9569
vn 0.0980 -0.0000 0.9952
vn -0.0980 -0.0000 0.9952
vn -0.2903 -0.0000 0.9569
vn -0.4714 -0.0000 0.8819
vn -0.6344 -0.0000 0.7730
vn -0.7730 -0.0000 0.6344
vn -0.8819 -0.0000 0.4714
vn -0.9569 -0.0000 0.2903
vn -0.9952 -0.0000 0.0980
vn -0.9952 -0.0000 -0.0980
vn -0.9569 -0.0000 -0.2903
vn -0.8819 -0.0000 -0.4714
vn -0.7730 -0.0000 -0.6344
vn -0.6344 -0.0000 -0.7730
vn -0.4714 -0.0000 -0.8819
vn -0.2903 -0.0000 -0.9569
vn -0.0980 -0.0000 -0.9952
vt 0.833333 0.833333
vt 0.833333 1.000000
vt 1.000000 1.000000
vt 1.000000 0.833333
vt 0.000000 0.833333
vt 0.000000 1.000000
vt 0.166667 1.000000
vt 0.166667 0.833333
vt 0.333333 1.000000
vt 0.333333 0.833333
vt 0.500000 1.000000
vt 0.500000 0.833333
vt 0.666667 1.000000
vt 0.666667 0.833333
vt 0.000000 0.000000
vt 0.000000 0.166667
vt 0.166667 0.166667
vt 0.166667 0.000000
vt 0.000000 0.333333
vt 0.166667 0.333333
vt 0.000000 0.500000
vt 0.166667 0.500000
vt 0.000000 0.666667
vt 0.166667 0.666667
vt 0.333333 0.166667
vt 0.333333 0.000000
vt 0.333333 0.333333
vt 0.333333 0.500000
vt 0.333333 0.666667
vt 0.500000 0.166667
vt 0.500000 0.000000
vt 0.500000 0.333333
vt 0.500000 0.500000
vt 0.500000 0.666667
vt 0.666667 0.166667
vt 0.666667 0.000000
vt 0.666667 0.333333
vt 0.666667 0.500000
vt 0.666667 0.666667
vt 0.833333 0.166667
vt 0.833333 0.000000
vt 0.833333 0.333333
vt 0.833333 0.500000
vt 0.833333 0.666667
vt 1.000000 0.166667
vt 1.000000 0.000000
vt 1.000000 0.333333
vt 1.000000 0.500000
vt 1.000000 0.666667
vt 0.968750 1.000000
vt 0.968750 0.500000
vt 0.937500 1.000000
vt 0.937500 0.500000
vt 0.906250 1.000000
vt 0.906250 0.500000
vt 0.875000 1.000000
vt 0.875000 0.500000
vt 0.843750 1.000000
vt 0.843750 0.500000
vt 0.812500 1.000000
vt 0.812500 0.500000
vt 0.781250 1.000000
vt 0.781250 0.500000
vt 0.750000 1.000000
vt 0.750000 0.500000
vt 0.718750 1.000000
vt 0.718750 0.500000
vt 0.687500 1.000000
vt 0.687500 0.500000
vt 0.656250 1.000000
vt 0.656250 0.500000
vt 0.625000 1.000000
vt 0.625000 0.500000
vt 0.593750 1.000000
vt 0.593750 0.500000
vt 0.562500 1.000000
vt 0.562500 0.500000
vt 0.531250 1.000000
vt 0.531250 0.500000
vt 0.468750 1.000000
vt 0.468750 0.500000
vt 0.437500 1.000000
vt 0.437500 0.500000
vt 0.406250 1.000000
vt 0.406250 0.500000
vt 0.375000 1.000000
vt 0.375000 0.500000
vt 0.343750 1.000000
vt 0.343750 0.500000
vt 0.312500 1.000000
vt 0.312500 0.500000
vt 0.281250 1.000000
vt 0.281250 0.500000
vt 0.250000 1.000000
vt 0.250000 0.500000
vt 0.218750 1.000000
vt 0.218750 0.500000
vt 0.187500 1.000000
vt 0.187500 0.500000
vt 0.156250 1.000000
vt 0.156250 0.500000
vt 0.125000 1.000000
vt 0.125000 0.500000
vt 0.093750 1.000000
vt 0.093750 0.500000
vt 0.062500 1.000000
vt 0.062500 0.500000
vt 0.296822 0.485388
vt 0.250000 0.490000
vt 0.203178 0.485388
vt 0.158156 0.471731
vt 0.116663 0.449553
vt 0.080294 0.419706
vt 0.050447 0.383337
vt 0.028269 0.341844
vt 0.014612 0.296822
vt 0.010000 0.250000
vt 0.014612 0.203178
vt 0.028269 0.158156
vt 0.050447 0.116663
vt 0.080294 0.080294
vt 0.116663 0.050447
vt 0.158156 0.028269
vt 0.203178 0.014612
vt 0.250000 0.010000
vt 0.296822 0.014612
vt 0.341844 0.028269
vt 0.383337 0.050447
vt 0.419706 0.080294
vt 0.449553 0.116663
vt 0.471731 0.158156
vt 0.485388 0.203178
vt 0.490000 0.250000
vt 0.485388 0.296822
vt 0.471731 0.341844
vt 0.449553 0.383337
vt 0.419706 0.419706
vt 0.383337 0.449553
vt 0.341844 0.471731
vt 0.031250 1.000000
vt 0.031250 0.500000
vt 0.750000 0.490000
vt 0.796822 0.485388
vt 0.841844 0.471731
vt 0.883337 0.449553
vt 0.919706 0.419706
vt 0.949553 0.383337
vt 0.971731 0.341844
vt 0.985388 0.296822
vt 0.990000 0.250000
vt 0.985388 0.203178
vt 0.971731 0.158156
vt 0.949553 0.116663
vt 0.919706 0.080294
vt 0.883337 0.050447
vt 0.841844 0.028269
vt 0.796822 0.014612
vt 0.750000 0.010000
vt 0.703178 0.014612
vt 0.658156 0.028269
vt 0.616663 0.050447
vt 0.580294 0.080294
vt 0.550447 0.116663
vt 0.528269 0.158156
vt 0.514612 0.203178
vt 0.510000 0.250000
vt 0.514612 0.296822
vt 0.528269 0.341844
vt 0.550447 0.383337
vt 0.580294 0.419706
vt 0.616663 0.449553
vt 0.658156 0.471731
vt 0.703178 0.485388
vt 0.116663 0.449553
vt 0.080294 0.419706
vt 0.050447 0.383337
vt 0.028269 0.341844
vt 0.014612 0.296822
vt 0.014612 0.203178
vt 0.028269 0.158156
vt 0.050447 0.116663
vt 0.080294 0.080294
vt 0.116663 0.050447
vt 0.158156 0.028269
vt 0.203178 0.014612
vt 0.296822 0.014612
vt 0.341844 0.028269
vt 0.383337 0.050447
vt 0.419706 0.080294
vt 0.449553 0.116663
vt 0.449553 0.383337
vt 0.383337 0.449553
vt 0.883337 0.449553
vt 0.949553 0.383337
vt 0.949553 0.116663
vt 0.919706 0.080294
vt 0.883337 0.050447
vt 0.841844 0.028269
vt 0.796822 0.014612
vt 0.703178 0.014612
vt 0.658156 0.028269
vt 0.616663 0.050447
vt 0.580294 0.080294
vt 0.550447 0.116663
vt 0.550447 0.383337
vt 0.616663 0.449553
vt 0.375000 0.000000
vt 0.625000 0.000000
vt 0.625000 0.250000
vt 0.375000 0.250000
vt 0.625000 0.750000
vt 0.375000 0.750000
vt 0.125000 0.750000
vt 0.875000 0.750000
s 0
usemtl Black
f 49/1/1 20/2/1 4/3/1 19/4/1
f 5/5/1 3/6/1 24/7/1 29/8/1
f 29/8/1 24/7/1 23/9/1 34/10/1
f 34/10/1 23/9/1 22/11/1 39/12/1
f 39/12/1 22/11/1 21/13/1 44/14/1
f 44/14/1 21/13/1 20/2/1 49/1/1
f 1/15/1 9/16/1 25/17/1 10/18/1
f 9/16/1 8/19/1 26/20/1 25/17/1
f 8/19/1 7/21/1 27/22/1 26/20/1
f 7/21/1 6/23/1 28/24/1 27/22/1
f 6/23/1 5/5/1 29/8/1 28/24/1
f 10/18/1 25/17/1 30/25/1 11/26/1
f 25/17/1 26/20/1 31/27/1 30/25/1
f 26/20/1 27/22/1 32/28/1 31/27/1
f 11/26/1 30/25/1 35/30/1 12/31/1
f 32/28/1 33/29/1 38/34/1 37/33/1
f 12/31/1 35/30/1 40/35/1 13/36/1
f 35/30/1 36/32/1 41/37/1 40/35/1
f 36/32/1 37/33/1 42/38/1 41/37/1
f 37/33/1 38/34/1 43/39/1 42/38/1
f 13/36/1 40/35/1 45/40/1 14/41/1
f 41/37/1 42/38/1 47/43/1 46/42/1
f 43/39/1 44/14/1 49/1/1 48/44/1
f 14/41/1 45/40/1 15/45/1 2/46/1
f 45/40/1 46/42/1 16/47/1 15/45/1
f 46/42/1 47/43/1 17/48/1 16/47/1
f 47/43/1 48/44/1 18/49/1 17/48/1
f 48/44/1 49/1/1 19/4/1 18/49/1
f 50/1/2 51/4/2 52/3/2 53/2/2
f 54/5/2 55/8/2 56/7/2 57/6/2
f 55/8/2 58/10/2 59/9/2 56/7/2
f 58/10/2 60/12/2 61/11/2 59/9/2
f 60/12/2 62/14/2 63/13/2 61/11/2
f 62/14/2 50/1/2 53/2/2 63/13/2
f 64/15/2 65/18/2 66/17/2 67/16/2
f 67/16/2 66/17/2 68/20/2 69/19/2
f 69/19/2 68/20/2 70/22/2 71/21/2
f 71/21/2 70/22/2 72/24/2 73/23/2
f 73/23/2 72/24/2 55/8/2 54/5/2
f 65/18/2 74/26/2 75/25/2 66/17/2
f 66/17/2 75/25/2 76/27/2 68/20/2
f 68/20/2 76/27/2 77/28/2 70/22/2
f 74/26/2 79/31/2 80/30/2 75/25/2
f 77/28/2 82/33/2 83/34/2 78/29/2
f 79/31/2 84/36/2 85/35/2 80/30/2
f 80/30/2 85/35/2 86/37/2 81/32/2
f 81/32/2 86/37/2 87/38/2 82/33/2
f 82/33/2 87/38/2 88/39/2 83/34/2
f 84/36/2 89/41/2 90/40/2 85/35/2
f 86/37/2 91/42/2 92/43/2 87/38/2
f 88/39/2 93/44/2 50/1/2 62/14/2
f 89/41/2 94/46/2 95/45/2 90/40/2
f 90/40/2 95/45/2 96/47/2 91/42/2
f 91/42/2 96/47/2 97/48/2 92/43/2
f 92/43/2 97/48/2 98/49/2 93/44/2
f 93/44/2 98/49/2 51/4/2 50/1/2
f 14/41/3 2/46/3 94/46/3 89/41/3
f 16/47/4 17/48/4 97/48/4 96/47/4
f 1/15/3 10/18/3 65/18/3 64/15/3
f 19/4/4 4/3/4 52/3/4 51/4/4
f 17/48/4 18/49/4 98/49/4 97/48/4
f 10/18/3 11/26/3 74/26/3 65/18/3
f 24/7/5 3/6/5 57/6/5 56/7/5
f 18/49/4 19/4/4 51/4/4 98/49/4
f 11/26/3 12/31/3 79/31/3 74/26/3
f 3/6/6 5/5/6 54/5/6 57/6/6
f 4/3/5 20/2/5 53/2/5 52/3/5
f 12/31/3 13/36/3 84/36/3 79/31/3
f 5/5/6 6/23/6 73/23/6 54/5/6
f 20/2/5 21/13/5 63/13/5 53/2/5
f 13/36/3 14/41/3 89/41/3 84/36/3
f 6/23/6 7/21/6 71/21/6 73/23/6
f 21/13/5 22/11/5 61/11/5 63/13/5
f 2/46/4 15/45/4 95/45/4 94/46/4
f 7/21/6 8/19/6 69/19/6 71/21/6
f 22/11/5 23/9/5 59/9/5 61/11/5
f 9/16/6 1/15/6 64/15/6 67/16/6
f 15/45/4 16/47/4 96/47/4 95/45/4
f 8/19/6 9/16/6 67/16/6 69/19/6
f 23/9/5 24/7/5 56/7/5 59/9/5
usemtl White
f 27/22/1 28/24/1 33/29/1 32/28/1
f 28/24/1 29/8/1 34/10/1 33/29/1
f 30/25/1 31/27/1 36/32/1 35/30/1
f 31/27/1 32/28/1 37/33/1 36/32/1
f 33/29/1 34/10/1 39/12/1 38/34/1
f 38/34/1 39/12/1 44/14/1 43/39/1
f 40/35/1 41/37/1 46/42/1 45/40/1
f 42/38/1 43/39/1 48/44/1 47/43/1
f 70/22/2 77/28/2 78/29/2 72/24/2
f 72/24/2 78/29/2 58/10/2 55/8/2
f 75/25/2 80/30/2 81/32/2 76/27/2
f 76/27/2 81/32/2 82/33/2 77/28/2
f 78/29/2 83/34/2 60/12/2 58/10/2
f 83/34/2 88/39/2 62/14/2 60/12/2
f 85/35/2 90/40/2 91/42/2 86/37/2
f 87/38/2 92/43/2 93/44/2 88/39/2
f 227/207/6 228/208/6 230/209/6 229/210/6
f 229/210/5 230/209/5 234/73/5 233/87/5
f 233/87/4 234/73/4 232/211/4 231/212/4
f 231/212/3 232/211/3 228/72/3 227/86/3
f 229/103/1 233/87/1 231/212/1 227/213/1
f 234/73/2 230/57/2 228/214/2 232/211/2
usemtl Gray
f 99/48/7 100/3/7 102/50/7 101/51/7
f 101/51/8 102/50/8 104/52/8 103/53/8
f 103/53/9 104/52/9 106/54/9 105/55/9
f 105/55/10 106/54/10 108/56/10 107/57/10
f 107/57/11 108/56/11 110/58/11 109/59/11
f 109/59/12 110/58/12 112/60/12 111/61/12
f 111/61/13 112/60/13 114/62/13 113/63/13
f 113/63/14 114/62/14 116/64/14 115/65/14
f 115/65/15 116/64/15 118/66/15 117/67/15
f 117/67/16 118/66/16 120/68/16 119/69/16
f 119/69/17 120/68/17 122/70/17 121/71/17
f 121/71/18 122/70/18 124/72/18 123/73/18
f 123/73/19 124/72/19 126/74/19 125/75/19
f 125/75/20 126/74/20 128/76/20 127/77/20
f 127/77/21 128/76/21 130/78/21 129/79/21
f 129/79/22 130/78/22 132/11/22 131/33/22
f 131/33/23 132/11/23 134/80/23 133/81/23
f 133/81/24 134/80/24 136/82/24 135/83/24
f 135/83/25 136/82/25 138/84/25 137/85/25
f 137/85/26 138/84/26 140/86/26 139/87/26
f 139/87/27 140/86/27 142/88/27 141/89/27
f 141/89/28 142/88/28 144/90/28 143/91/28
f 143/91/29 144/90/29 146/92/29 145/93/29
f 145/93/30 146/92/30 148/94/30 147/95/30
f 147/95/31 148/94/31 150/96/31 149/97/31
f 149/97/32 150/96/32 152/98/32 151/99/32
f 151/99/33 152/98/33 154/100/33 153/101/33
f 153/101/34 154/100/34 156/102/34 155/103/34
f 155/103/35 156/102/35 158/104/35 157/105/35
f 157/105/36 158/104/36 160/106/36 159/107/36
f 102/108/3 100/109/3 162/110/3 160/111/3 158/112/3 156/113/3 154/114/3 152/115/3 150/116/3 148/117/3 146/118/3 144/119/3 142/120/3 140/121/3 138/122/3 136/123/3 134/124/3 132/125/3 130/126/3 128/127/3 126/128/3 124/129/3 122/130/3 120/131/3 118/132/3 116/133/3 114/134/3 112/135/3 110/136/3 108/137/3 106/138/3 104/139/3
f 159/107/37 160/106/37 162/140/37 161/141/37
f 161/141/38 162/140/38 100/6/38 99/21/38
f 99/142/5 101/143/5 103/144/5 105/145/5 107/146/5 109/147/5 111/148/5 113/149/5 115/150/5 117/151/5 119/152/5 121/153/5 123/154/5 125/155/5 127/156/5 129/157/5 131/158/5 133/159/5 135/160/5 137/161/5 139/162/5 141/163/5 143/164/5 145/165/5 147/166/5 149/167/5 151/168/5 153/169/5 155/170/5 157/171/5 159/172/5 161/173/5
usemtl Dark_Gray
f 163/48/7 164/3/7 166/50/7 165/51/7
f 165/51/8 166/50/8 168/52/8 167/53/8
f 167/53/9 168/52/9 170/54/9 169/55/9
f 169/55/10 170/54/10 172/56/10 171/57/10
f 171/57/11 172/56/11 174/58/11 173/59/11
f 173/59/12 174/58/12 176/60/12 175/61/12
f 175/61/13 176/60/13 178/62/13 177/63/13
f 177/63/14 178/62/14 180/64/14 179/65/14
f 179/65/15 180/64/15 182/66/15 181/67/15
f 181/67/16 182/66/16 184/68/16 183/69/16
f 183/69/17 184/68/17 186/70/17 185/71/17
f 185/71/18 186/70/18 188/72/18 187/73/18
f 187/73/19 188/72/19 190/74/19 189/75/19
f 189/75/20 190/74/20 192/76/20 191/77/20
f 191/77/21 192/76/21 194/78/21 193/79/21
f 193/79/22 194/78/22 196/11/22 195/33/22
f 195/33/23 196/11/23 198/80/23 197/81/23
f 197/81/24 198/80/24 200/82/24 199/83/24
f 199/83/25 200/82/25 202/84/25 201/85/25
f 201/85/26 202/84/26 204/86/26 203/87/26
f 203/87/27 204/86/27 206/88/27 205/89/27
f 205/89/28 206/88/28 208/90/28 207/91/28
f 207/91/29 208/90/29 210/92/29 209/93/29
f 209/93/30 210/92/30 212/94/30 211/95/30
f 211/95/31 212/94/31 214/96/31 213/97/31
f 213/97/32 214/96/32 216/98/32 215/99/32
f 215/99/33 216/98/33 218/100/33 217/101/33
f 217/101/34 218/100/34 220/102/34 219/103/34
f 219/103/35 220/102/35 222/104/35 221/105/35
f 221/105/36 222/104/36 224/106/36 223/107/36
f 166/108/3 164/109/3 226/110/3 224/111/3 222/174/3 220/175/3 218/176/3 216/177/3 214/178/3 212/117/3 210/179/3 208/180/3 206/181/3 204/182/3 202/183/3 200/184/3 198/185/3 196/125/3 194/186/3 192/187/3 190/188/3 188/189/3 186/190/3 184/131/3 182/132/3 180/133/3 178/134/3 176/135/3 174/191/3 172/137/3 170/192/3 168/139/3
f 223/107/37 224/106/37 226/140/37 225/141/37
f 225/141/38 226/140/38 164/6/38 163/21/38
f 163/142/5 165/143/5 167/144/5 169/193/5 171/146/5 173/194/5 175/148/5 177/149/5 179/150/5 181/151/5 183/152/5 185/195/5 187/196/5 189/197/5 191/198/5 193/199/5 195/158/5 197/200/5 199/201/5 201/202/5 203/203/5 205/204/5 207/164/5 209/165/5 211/166/5 213/167/5 215/168/5 217/205/5 219/170/5 221/206/5 223/172/5 225/173/5
